<svg width="21" height="21" viewBox="0 0 21 21" fill="none" xmlns="http://www.w3.org/2000/svg">
<path d="M14.55 11.854C15.3 11.854 15.96 11.444 16.3 10.824L19.88 4.334C20.25 3.674 19.77 2.854 19.01 2.854H4.21L3.27 0.854004H0V2.854H2L5.6 10.444L4.25 12.884C3.52 14.224 4.48 15.854 6 15.854H18V13.854H6L7.1 11.854H14.55ZM5.16 4.854H17.31L14.55 9.854H7.53L5.16 4.854ZM6 16.854C4.9 16.854 4.01 17.754 4.01 18.854C4.01 19.954 4.9 20.854 6 20.854C7.1 20.854 8 19.954 8 18.854C8 17.754 7.1 16.854 6 16.854ZM16 16.854C14.9 16.854 14.01 17.754 14.01 18.854C14.01 19.954 14.9 20.854 16 20.854C17.1 20.854 18 19.954 18 18.854C18 17.754 17.1 16.854 16 16.854Z" fill="white"/>
</svg>
