<svg width="20" height="21" viewBox="0 0 20 21" fill="none" xmlns="http://www.w3.org/2000/svg">
<path d="M16.9308 4.1709C15.6561 3.586 14.2892 3.15507 12.8599 2.90826C12.8339 2.9035 12.8079 2.9154 12.7945 2.93921C12.6187 3.25189 12.4239 3.65981 12.2876 3.98043C10.7503 3.75028 9.22099 3.75028 7.71527 3.98043C7.57887 3.65268 7.37707 3.25189 7.20048 2.93921C7.18707 2.9162 7.16107 2.90429 7.13504 2.90826C5.70659 3.15428 4.33963 3.58521 3.06411 4.1709C3.05307 4.17566 3.04361 4.18361 3.03732 4.19392C0.444493 8.06755 -0.265792 11.846 0.0826501 15.5776C0.0842267 15.5958 0.0944749 15.6133 0.108665 15.6244C1.81934 16.8807 3.47642 17.6433 5.10273 18.1488C5.12876 18.1568 5.15634 18.1473 5.1729 18.1258C5.55761 17.6005 5.90054 17.0465 6.19456 16.464C6.21192 16.4299 6.19535 16.3894 6.15989 16.3759C5.61594 16.1696 5.098 15.918 4.59977 15.6323C4.56037 15.6093 4.55721 15.5529 4.59347 15.5259C4.69831 15.4474 4.80318 15.3656 4.9033 15.2831C4.92141 15.268 4.94665 15.2648 4.96794 15.2744C8.24107 16.7688 11.7846 16.7688 15.0191 15.2744C15.0404 15.2641 15.0657 15.2672 15.0846 15.2823C15.1847 15.3648 15.2895 15.4474 15.3952 15.5259C15.4314 15.5529 15.4291 15.6093 15.3897 15.6323C14.8914 15.9236 14.3735 16.1696 13.8288 16.3751C13.7933 16.3886 13.7775 16.4299 13.7949 16.464C14.0952 17.0457 14.4381 17.5997 14.8157 18.125C14.8315 18.1473 14.8599 18.1568 14.8859 18.1488C16.5201 17.6433 18.1772 16.8807 19.8879 15.6244C19.9028 15.6133 19.9123 15.5966 19.9139 15.5783C20.3309 11.2642 19.2154 7.51679 16.9568 4.19471C16.9513 4.18361 16.9419 4.17566 16.9308 4.1709ZM6.68335 13.3054C5.69792 13.3054 4.88594 12.4007 4.88594 11.2896C4.88594 10.1786 5.68217 9.27386 6.68335 9.27386C7.69239 9.27386 8.49651 10.1865 8.48073 11.2896C8.48073 12.4007 7.68451 13.3054 6.68335 13.3054ZM13.329 13.3054C12.3435 13.3054 11.5316 12.4007 11.5316 11.2896C11.5316 10.1786 12.3278 9.27386 13.329 9.27386C14.338 9.27386 15.1421 10.1865 15.1264 11.2896C15.1264 12.4007 14.338 13.3054 13.329 13.3054Z" fill="#B4B4B4"/>
</svg>
