<svg width="20" height="21" viewBox="0 0 20 21" fill="none" xmlns="http://www.w3.org/2000/svg">
<g clip-path="url(#clip0_34_1212)">
<path d="M18.5195 0.708008H1.47656C0.660156 0.708008 0 1.35254 0 2.14941V19.2627C0 20.0596 0.660156 20.708 1.47656 20.708H18.5195C19.3359 20.708 20 20.0596 20 19.2666V2.14941C20 1.35254 19.3359 0.708008 18.5195 0.708008ZM5.93359 17.751H2.96484V8.2041H5.93359V17.751ZM4.44922 6.90332C3.49609 6.90332 2.72656 6.13379 2.72656 5.18457C2.72656 4.23535 3.49609 3.46582 4.44922 3.46582C5.39844 3.46582 6.16797 4.23535 6.16797 5.18457C6.16797 6.12988 5.39844 6.90332 4.44922 6.90332ZM17.043 17.751H14.0781V13.1104C14.0781 12.0049 14.0586 10.5791 12.5352 10.5791C10.9922 10.5791 10.7578 11.7861 10.7578 13.0322V17.751H7.79688V8.2041H10.6406V9.50879H10.6797C11.0742 8.75879 12.043 7.96582 13.4844 7.96582C16.4883 7.96582 17.043 9.94238 17.043 12.5127V17.751Z" fill="#B4B4B4"/>
</g>
<defs>
<clipPath id="clip0_34_1212">
<rect width="20" height="20" fill="white" transform="translate(0 0.708008)"/>
</clipPath>
</defs>
</svg>
