<svg width="20" height="21" viewBox="0 0 20 21" fill="none" xmlns="http://www.w3.org/2000/svg">
<g clip-path="url(#clip0_34_1209)">
<path d="M6.2918 18.8331C13.8371 18.8331 17.9652 12.5804 17.9652 7.15968C17.9652 6.9839 17.9613 6.80421 17.9535 6.62843C18.7566 6.04768 19.4496 5.32834 20 4.50421C19.2521 4.83696 18.458 5.05428 17.6449 5.14874C18.5011 4.63555 19.1421 3.82936 19.4492 2.8796C18.6438 3.35693 17.763 3.69364 16.8445 3.87531C16.2257 3.21776 15.4075 2.78239 14.5164 2.63651C13.6253 2.49062 12.711 2.64234 11.9148 3.06821C11.1186 3.49408 10.4848 4.17038 10.1115 4.99256C9.73825 5.81473 9.64619 6.73698 9.84961 7.61671C8.21874 7.53487 6.62328 7.11122 5.16665 6.37321C3.71002 5.63521 2.42474 4.59933 1.39414 3.33273C0.870333 4.23583 0.710047 5.3045 0.945859 6.32154C1.18167 7.33858 1.79589 8.22767 2.66367 8.80812C2.01219 8.78743 1.37498 8.61203 0.804688 8.2964V8.34718C0.804104 9.29492 1.13175 10.2136 1.73192 10.9471C2.3321 11.6806 3.16777 12.1836 4.09687 12.3706C3.49338 12.5357 2.85999 12.5598 2.2457 12.4409C2.50788 13.256 3.01798 13.9689 3.70481 14.4801C4.39164 14.9913 5.22093 15.2753 6.07695 15.2925C4.62369 16.4341 2.82848 17.0532 0.980469 17.0503C0.652739 17.0498 0.325333 17.0297 0 16.9901C1.87738 18.1946 4.06128 18.8343 6.2918 18.8331Z" fill="#B4B4B4"/>
</g>
<defs>
<clipPath id="clip0_34_1209">
<rect width="20" height="20" fill="white" transform="translate(0 0.708008)"/>
</clipPath>
</defs>
</svg>
