<svg width="64" height="26" viewBox="0 0 64 26" fill="none" xmlns="http://www.w3.org/2000/svg">
<path d="M23.5572 10.3821C23.5572 9.60383 24.1909 8.97288 24.9725 8.97288L24.9777 8.97289L24.983 8.97288C25.7646 8.97288 26.3982 9.60383 26.3982 10.3821V21.6562C26.3982 22.4345 25.7646 23.0655 24.983 23.0655L24.9777 23.0655L24.9725 23.0655C24.1909 23.0655 23.5572 22.4345 23.5572 21.6562V10.3821Z" fill="black"/>
<path fill-rule="evenodd" clip-rule="evenodd" d="M32.9084 23.0655C35.7223 23.0655 38.0034 20.7941 38.0034 17.9922C38.0034 15.1902 35.7223 12.9188 32.9084 12.9188C30.0946 12.9188 27.8135 15.1902 27.8135 17.9922C27.8135 20.7941 30.0946 23.0655 32.9084 23.0655ZM32.9084 20.5288C34.3154 20.5288 35.4559 19.3931 35.4559 17.9922C35.4559 16.5912 34.3154 15.4555 32.9084 15.4555C31.5015 15.4555 30.361 16.5912 30.361 17.9922C30.361 19.3931 31.5015 20.5288 32.9084 20.5288Z" fill="black"/>
<path d="M41.6971 17.9922C41.6971 16.7115 42.8019 15.601 44.1518 15.601C44.6023 15.601 45.0194 15.7263 45.3756 15.9433C46.0443 16.3507 46.9139 16.1345 47.318 15.4603C47.722 14.7861 47.5076 13.9093 46.8389 13.5019C46.0537 13.0234 45.1324 12.7484 44.1518 12.7484C41.3198 12.7484 38.868 15.0562 38.868 17.9922C38.868 20.9281 41.3198 23.2359 44.1518 23.2359C45.4103 23.2359 46.5676 22.7834 47.4671 22.0325C48.0689 21.5301 48.1527 20.631 47.6545 20.0242C47.1562 19.4175 46.2645 19.3329 45.6628 19.8353C45.2519 20.1783 44.7275 20.3833 44.1518 20.3833C42.8019 20.3833 41.6971 19.2728 41.6971 17.9922Z" fill="black"/>
<path fill-rule="evenodd" clip-rule="evenodd" d="M56.5185 21.9966C55.6894 22.5783 54.6782 22.92 53.5869 22.92C50.7731 22.92 48.492 20.6486 48.492 17.8466C48.492 15.0447 50.7731 12.7733 53.5869 12.7733C54.6354 12.7733 55.61 13.0887 56.4201 13.6294C56.4752 13.118 57.0833 12.7151 57.8254 12.7151L57.8306 12.7151L57.8358 12.7151C58.6142 12.7151 59.2452 13.1583 59.2452 13.7051V21.6253C59.2452 22.1721 58.6142 22.6153 57.8358 22.6153L57.8306 22.6153L57.8254 22.6153C57.2339 22.6153 56.7276 22.3594 56.5185 21.9966ZM56.3008 17.8466C56.3008 19.2476 54.9938 20.3833 53.5869 20.3833C52.18 20.3833 51.0394 19.2476 51.0394 17.8466C51.0394 16.4457 52.18 15.31 53.5869 15.31C54.9938 15.31 56.3008 16.4457 56.3008 17.8466Z" fill="black"/>
<path d="M61.159 10.5499C61.159 9.77162 61.7926 9.14067 62.5743 9.14067L62.5795 9.14068L62.5847 9.14067C63.3664 9.14067 64 9.77162 64 10.5499V21.824C64 22.6023 63.3664 23.2333 62.5847 23.2333L62.5795 23.2333L62.5743 23.2333C61.7926 23.2333 61.159 22.6023 61.159 21.824V10.5499Z" fill="black"/>
<path d="M18.1459 12.456L13.1624 13.8107C12.348 14.0321 11.5108 13.5417 11.2926 12.7155C11.0744 11.8892 11.5577 11.0399 12.3722 10.8185L19.3118 8.93206C20.1263 8.71067 20.9634 9.20101 21.1817 10.0273C21.7068 12.0156 22.1104 13.8286 21.742 15.9212C21.3211 18.3112 20.1404 20.4958 18.3804 22.141C16.6203 23.7861 14.3777 24.8014 11.9953 25.0316C9.61284 25.2618 7.22162 24.6944 5.18707 23.4159C3.15253 22.1374 1.58655 20.2183 0.728467 17.9517C-0.129612 15.6852 -0.232592 13.1961 0.435259 10.8646C2.41948 3.93761 10.0133 1.51605 16.3818 0.925537C17.3757 0.833376 18.175 1.65327 18.1639 2.66575C18.1529 3.67823 17.3354 4.50245 16.3415 4.59527C11.637 5.03468 5.40643 6.6497 3.90598 11.8878C3.45844 13.4502 3.52745 15.1182 4.10246 16.6371C4.67747 18.1559 5.72687 19.4419 7.09026 20.2987C8.45364 21.1554 10.056 21.5357 11.6525 21.3814C13.2491 21.2271 14.7519 20.5468 15.9313 19.4443C17.1108 18.3419 17.9019 16.878 18.184 15.2763C18.3495 14.3363 18.3343 13.3792 18.1459 12.456Z" fill="#7673FE"/>
</svg>
